<svg width="49" height="40" viewBox="0 0 49 40" fill="none" xmlns="http://www.w3.org/2000/svg">
<path d="M16.9335 34.3271V32.3872C16.9564 32.058 16.8364 31.7349 16.6044 31.5003C16.3723 31.2657 16.0504 31.1424 15.721 31.1618C15.2858 31.1333 14.8695 31.3439 14.6347 31.7114C14.4206 31.3548 14.0285 31.1439 13.613 31.1618C13.2511 31.1435 12.9067 31.3182 12.7077 31.6209V31.2394H12.0352V34.3271H12.7141V32.6167C12.6837 32.4025 12.751 32.1859 12.8977 32.0267C13.0443 31.8676 13.2547 31.7827 13.4707 31.7955C13.9169 31.7955 14.1432 32.0865 14.1432 32.6103V34.3271H14.8222V32.6167C14.7941 32.403 14.8624 32.1878 15.0084 32.0292C15.1545 31.8706 15.3634 31.785 15.5788 31.7955C16.0379 31.7955 16.2577 32.0865 16.2577 32.6103V34.3271H16.9335ZM20.7163 32.7849V31.2426H20.0374V31.6177C19.806 31.3191 19.4448 31.1506 19.0674 31.165C18.1746 31.165 17.4508 31.8888 17.4508 32.7816C17.4508 33.6745 18.1746 34.3982 19.0674 34.3982C19.4448 34.4127 19.806 34.2441 20.0374 33.9456V34.3206H20.7099L20.7163 32.7849ZM18.2171 32.7849C18.247 32.2775 18.677 31.887 19.1849 31.9061C19.6928 31.9252 20.0923 32.3467 20.0841 32.8549C20.0759 33.3632 19.663 33.7716 19.1547 33.7742C18.8945 33.7803 18.6437 33.6765 18.464 33.4882C18.2843 33.2998 18.1923 33.0445 18.2106 32.7849H18.2171ZM35.0847 31.1683C35.3061 31.1677 35.5256 31.2094 35.7314 31.2911C35.9278 31.3698 36.1068 31.4862 36.2584 31.6338C36.408 31.7801 36.5267 31.9549 36.6076 32.1479C36.7765 32.5625 36.7765 33.0267 36.6076 33.4412C36.5268 33.6342 36.4081 33.8091 36.2584 33.9553C36.1068 34.1029 35.9278 34.2194 35.7314 34.298C35.305 34.4637 34.8321 34.4637 34.4058 34.298C34.2103 34.2194 34.0323 34.103 33.882 33.9553C33.7338 33.8085 33.6162 33.6338 33.536 33.4412C33.3675 33.0266 33.3675 32.5625 33.536 32.1479C33.6162 31.9554 33.7338 31.7807 33.882 31.6338C34.0323 31.4862 34.2103 31.3697 34.4058 31.2911C34.6189 31.2028 34.8475 31.1577 35.0783 31.1586L35.0847 31.1683ZM35.0847 31.8149C34.9531 31.8131 34.8223 31.8373 34.7 31.886C34.5848 31.9322 34.4802 32.0016 34.3928 32.0897C34.3037 32.1825 34.2344 32.2926 34.1891 32.413C34.0904 32.6712 34.0904 32.9567 34.1891 33.2149C34.2343 33.3354 34.3036 33.4454 34.3928 33.5382C34.4802 33.6264 34.5847 33.6958 34.7 33.7419C34.9463 33.8383 35.2199 33.8383 35.4663 33.7419C35.587 33.6973 35.6972 33.6279 35.7896 33.5382C35.879 33.4456 35.9483 33.3355 35.9933 33.2149C36.092 32.9567 36.092 32.6712 35.9933 32.413C35.9483 32.2924 35.879 32.1824 35.7896 32.0897C35.6972 32.0001 35.587 31.9307 35.4663 31.886C35.3443 31.8302 35.2124 31.7994 35.0783 31.7955L35.0847 31.8149ZM24.3699 32.7849C24.3699 31.8149 23.7685 31.1683 22.9052 31.1683C22.0124 31.1808 21.2987 31.9147 21.3112 32.8075C21.3237 33.7003 22.0577 34.414 22.9505 34.4015C23.4108 34.4172 23.8608 34.263 24.2147 33.9682L23.8914 33.4703C23.636 33.6751 23.3198 33.7888 22.9925 33.7936C22.5303 33.8334 22.1204 33.498 22.0678 33.0371H24.3602C24.3699 32.9562 24.3699 32.8754 24.3699 32.7849ZM22.0711 32.5133C22.097 32.0867 22.4554 31.7569 22.8826 31.7664C23.0858 31.7621 23.2825 31.8387 23.4292 31.9794C23.576 32.12 23.6608 32.3133 23.665 32.5165L22.0711 32.5133ZM27.1989 32.0283C26.9037 31.8583 26.5697 31.767 26.229 31.7632C25.8604 31.7632 25.6405 31.899 25.6405 32.1253C25.6405 32.3516 25.8733 32.3904 26.1643 32.4292L26.4876 32.4745C27.1601 32.5715 27.5675 32.856 27.5675 33.3992C27.5675 33.9424 27.0502 34.4079 26.1611 34.4079C25.6845 34.4206 25.2165 34.2801 24.8258 34.007L25.1491 33.4832C25.4458 33.7034 25.8079 33.8173 26.1772 33.8066C26.6364 33.8066 26.8821 33.6708 26.8821 33.4315C26.8821 33.2569 26.7075 33.1599 26.3389 33.1082L26.0156 33.0629C25.3237 32.9659 24.9486 32.6555 24.9486 32.1512C24.9486 31.5368 25.453 31.1618 26.2419 31.1618C26.6834 31.147 27.12 31.2592 27.4996 31.4851L27.1989 32.0283ZM30.4321 31.8537H29.3361V33.2472C29.3361 33.5705 29.446 33.7645 29.7823 33.7645C29.9921 33.7576 30.1968 33.6975 30.3772 33.5899L30.5712 34.1654C30.3191 34.3228 30.0277 34.4057 29.7305 34.4047C28.9352 34.4047 28.6571 33.9779 28.6571 33.2601V31.8537H28.0299V31.2394H28.6571V30.3018H29.3361V31.2394H30.4321V31.8537ZM32.7568 31.1618C32.9199 31.1624 33.0818 31.1909 33.2353 31.2459L33.0284 31.8925C32.8948 31.8392 32.7519 31.8128 32.6081 31.8149C32.1684 31.8149 31.9615 32.0994 31.9615 32.6103V34.34H31.2889V31.2523H31.955V31.6274C32.1231 31.3386 32.4357 31.1649 32.7698 31.1747L32.7568 31.1618ZM37.4062 33.8777C37.4482 33.8772 37.49 33.8849 37.529 33.9003C37.5662 33.9155 37.6002 33.9374 37.6293 33.965C37.6577 33.9929 37.6807 34.0257 37.6972 34.062C37.7303 34.1383 37.7303 34.2249 37.6972 34.3012C37.6807 34.3375 37.6577 34.3704 37.6293 34.3982C37.6002 34.4258 37.5662 34.4478 37.529 34.4629C37.4903 34.48 37.4485 34.4888 37.4062 34.4888C37.2811 34.4878 37.1677 34.4148 37.1152 34.3012C37.0825 34.2248 37.0825 34.1384 37.1152 34.062C37.1317 34.0257 37.1547 33.9929 37.1831 33.965C37.2122 33.9374 37.2462 33.9155 37.2833 33.9003C37.3174 33.8868 37.3534 33.8791 37.39 33.8777H37.4062ZM37.4062 34.4241C37.4385 34.4243 37.4704 34.4177 37.4999 34.4047C37.5278 34.3923 37.553 34.3747 37.5743 34.353C37.63 34.2969 37.6544 34.217 37.6395 34.1394C37.6246 34.0618 37.5724 33.9965 37.4999 33.965C37.4704 33.9521 37.4384 33.9455 37.4062 33.9456C37.374 33.9458 37.3421 33.9524 37.3124 33.965C37.2834 33.9769 37.257 33.9945 37.2348 34.0167C37.151 34.1082 37.151 34.2486 37.2348 34.34C37.2801 34.3858 37.3418 34.4115 37.4062 34.4112V34.4241ZM37.4256 34.0394C37.4558 34.0379 37.4855 34.047 37.5096 34.0652C37.5297 34.0818 37.5406 34.1071 37.5387 34.1331C37.5397 34.1548 37.5315 34.1759 37.5161 34.1913C37.4974 34.2083 37.4735 34.2186 37.4482 34.2204L37.542 34.3271H37.4676L37.3803 34.2204H37.3512V34.3271H37.2898V34.0297L37.4256 34.0394ZM37.3545 34.0943V34.1719H37.4256C37.4382 34.1757 37.4517 34.1757 37.4644 34.1719C37.469 34.1628 37.469 34.152 37.4644 34.1428C37.469 34.1337 37.469 34.1229 37.4644 34.1137C37.4517 34.1099 37.4382 34.1099 37.4256 34.1137L37.3545 34.0943Z" fill="#A3A1A7"/>
<path d="M29.462 7.68213H19.2773V25.9854H29.462V7.68213Z" fill="#7673C0"/>
<path d="M19.9232 16.8356C19.9194 13.2634 21.5588 9.88794 24.3689 7.68238C19.5966 3.93187 12.7434 4.47817 8.62552 8.93735C4.50766 13.3965 4.50766 20.2715 8.62552 24.7306C12.7434 29.1898 19.5966 29.7361 24.3689 25.9856C21.5597 23.7808 19.9204 20.4067 19.9232 16.8356Z" fill="#EB001B"/>
<path d="M42.0901 24.0457V23.6836H42.2421V23.606H41.8573V23.6836H42.0093V24.0586L42.0901 24.0457ZM42.837 24.0457V23.593H42.7206L42.5848 23.9164L42.449 23.593H42.3294V24.0457H42.4134V23.7062L42.5395 24.0004H42.6268L42.7529 23.7062V24.0489L42.837 24.0457Z" fill="#00A1DF"/>
<path d="M43.1994 16.8355C43.1983 21.2908 40.6542 25.3545 36.6469 27.3017C32.6397 29.2489 27.8725 28.7379 24.3691 25.9855C27.1771 23.7788 28.8165 20.4052 28.8165 16.8339C28.8165 13.2626 27.1771 9.88899 24.3691 7.68227C27.8725 4.92793 32.641 4.41571 36.6495 6.36315C40.6579 8.3106 43.2025 12.3758 43.2026 16.8323L43.1994 16.8355Z" fill="#00A1DF"/>
</svg>
