<svg width="45" height="30" viewBox="0 0 45 30" fill="none" xmlns="http://www.w3.org/2000/svg">
<path d="M28.2237 5.19238H16.5273V24.296H28.2237V5.19238Z" fill="#FF5F00"/>
<path d="M17.7301 14.7455C17.7286 12.906 18.1456 11.0903 18.9495 9.43573C19.7534 7.78117 20.9231 6.33115 22.3701 5.1954C20.5779 3.78691 18.4256 2.91106 16.1592 2.66794C13.8927 2.42482 11.6036 2.82424 9.55343 3.82056C7.50326 4.81688 5.77474 6.36989 4.56544 8.3021C3.35614 10.2343 2.71484 12.4678 2.71484 14.7472C2.71484 17.0267 3.35614 19.2601 4.56544 21.1923C5.77474 23.1246 7.50326 24.6776 9.55343 25.6739C11.6036 26.6702 13.8927 27.0696 16.1592 26.8265C18.4256 26.5834 20.5779 25.7075 22.3701 24.2991C20.9227 23.163 19.7527 21.7124 18.9488 20.0572C18.1449 18.402 17.7281 16.5856 17.7301 14.7455Z" fill="#EB001B"/>
<path d="M42.028 14.746C42.028 17.0256 41.3865 19.2592 40.177 21.1915C38.9675 23.1237 37.2387 24.6767 35.1883 25.6729C33.1379 26.6691 30.8485 27.0683 28.5819 26.8248C26.3154 26.5813 24.163 25.705 22.3709 24.2961C23.8174 23.1593 24.9868 21.7089 25.7909 20.0543C26.595 18.3996 27.0128 16.584 27.0128 14.7443C27.0128 12.9046 26.595 11.0889 25.7909 9.43428C24.9868 7.77963 23.8174 6.32921 22.3709 5.19245C24.163 3.78353 26.3154 2.90725 28.5819 2.66378C30.8485 2.42031 33.1379 2.81948 35.1883 3.81565C37.2387 4.81183 38.9675 6.36481 40.177 8.29709C41.3865 10.2294 42.028 12.463 42.028 14.7426V14.746Z" fill="#F79E1B"/>
</svg>
