<svg width="46" height="30" viewBox="0 0 46 30" fill="none" xmlns="http://www.w3.org/2000/svg">
<g clip-path="url(#clip0_301_111)">
<path d="M45.3179 29.1392H0V0.351913H45.3179V29.1392Z" fill="white"/>
<path d="M0.754883 24.4613H44.5621V28.3892H0.754883V24.4613Z" fill="#F7B600"/>
<path d="M0.754883 5.0345H44.5621V1.1068H0.754883V5.0345Z" fill="#1A1F71"/>
<path d="M21.7878 8.58102L19.5924 18.8441H16.9371L19.1325 8.58102H21.7878ZM32.9579 15.208L34.356 11.3538L35.1592 15.208H32.9579ZM35.9218 18.8439H38.3766L36.2319 8.58102H33.9669C33.456 8.58102 33.0267 8.87748 32.836 9.33339L28.8518 18.8439H31.6401L32.1934 17.3111H35.6L35.9218 18.8441V18.8439ZM28.9905 15.4933C29.0016 12.7851 25.2458 12.6349 25.2704 11.4247C25.2794 11.0569 25.6298 10.6652 26.3968 10.5652C26.7766 10.5161 27.8265 10.4768 29.0152 11.0246L29.4806 8.84685C28.8417 8.61606 28.0197 8.39367 26.9971 8.39367C24.3722 8.39367 22.5257 9.78783 22.511 11.7858C22.4938 13.2637 23.8299 14.0874 24.8346 14.5796C25.8696 15.0823 26.2166 15.4054 26.2118 15.8546C26.2044 16.5432 25.3852 16.848 24.6236 16.8593C23.2884 16.8803 22.5142 16.4985 21.8967 16.2108L21.4148 18.4606C22.0358 18.7453 23.1809 18.9926 24.3668 19.0052C27.1572 19.0052 28.9823 17.6268 28.9905 15.4931V15.4933ZM17.9935 8.58102L13.6916 18.8441H10.8846L8.76747 10.6533C8.63928 10.1497 8.52766 9.96469 8.13701 9.75195C7.49857 9.40514 6.44429 9.08057 5.51758 8.87895L5.5801 8.58102H10.0987C10.6736 8.58102 11.1916 8.96392 11.3231 9.62691L12.4418 15.5663L15.2035 8.58102H17.9933H17.9935Z" fill="#1A1F71"/>
</g>
<defs>
<clipPath id="clip0_301_111">
<rect width="45.3179" height="28.7873" fill="white" transform="translate(0 0.351913)"/>
</clipPath>
</defs>
</svg>
