<svg width="200" height="53" viewBox="0 0 200 53" fill="none" xmlns="http://www.w3.org/2000/svg"><g clip-path="url(#a)"><mask id="b" style="mask-type:luminance" maskUnits="userSpaceOnUse" x="0" y="0" width="58" height="53"><path d="M57.792.312H.787v52.376h57.005V.312Z" fill="#fff"/></mask><g mask="url(#b)" fill-rule="evenodd" clip-rule="evenodd"><path d="m22.902 39.697 18.726-18.624c1.57-1.562 4.01-1.562 5.498 0l6.366 6.331c1.57 1.563 1.57 3.988 0 5.468L34.766 51.578c-1.571 1.562-4.01 1.562-5.498 0l-6.366-6.331c-1.571-1.562-1.571-3.988 0-5.55Z" fill="#5426FF"/><path d="m22.902 39.697 18.726-18.624c1.57-1.562 4.01-1.562 5.498 0l6.366 6.331c1.57 1.563 1.57 3.988 0 5.468L34.766 51.578c-1.571 1.562-4.01 1.562-5.498 0l-6.366-6.331c-1.571-1.562-1.571-3.988 0-5.55Z" fill="#5426FF"/><path opacity=".5" d="M44.728 33.818c1.571-1.562 1.571-3.988 0-5.468l-5.208-5.18-16.618 16.527c-1.571 1.562-1.571 3.988 0 5.468l5.208 5.18 16.618-16.527Z" fill="#4911D4"/><path d="M3.845 19.346 21.786 1.422c1.571-1.563 4.01-1.563 5.498 0l6.366 6.33c1.571 1.563 1.571 3.989 0 5.469L15.668 31.105c-1.57 1.562-4.01 1.562-5.498 0l-6.325-6.29a3.761 3.761 0 0 1 0-5.469Z" fill="#5426FF"/><path opacity=".5" d="M33.691 13.303c1.571-1.562 1.571-3.988 0-5.468l-4.795-4.769-16.37 16.28c-1.57 1.563-1.57 3.989 0 5.469l4.796 4.727 16.37-16.239Z" fill="#4911D4"/><path d="m56.138 16.387-4.96.863c-.868.165-1.654-.082-2.274-.699L38.528 6.232c-2.273-2.261-6.076-2.261-8.35 0L.952 35.257c-.455.452-.083 1.028.537.946l5.415-.864c.786-.082 1.571.083 2.109.7l10.252 10.195c2.604 2.59 5.994 2.426 8.598-.247l28.813-28.655c.413-.41 0-1.11-.538-.945ZM39.355 22.1l-13.31 13.24a3.406 3.406 0 0 1-4.796 0l-2.852-2.836c-.455-.453-.538-1.193 0-1.727L31.954 17.29c1.117-1.11 3.06-1.11 4.176 0l3.224 3.207c.413.411.413 1.192 0 1.603Z" fill="#CD40A7"/><path d="m41.34 32.585-2.191-2.426-8.723.781-4.423 4.4a3.406 3.406 0 0 1-4.795 0l4.465 4.44c2.604 2.59 5.994 2.425 8.598-.247l7.069-6.948Z" fill="url(#c)"/><path d="m23.399 12.933-8.764 8.757c3.142 2.179 6.614 4.604 6.614 4.604s.166.453.455 1.028l10.252-10.196c1.116-1.11 3.059-1.11 4.175 0l-4.258-4.275a6.063 6.063 0 0 0-8.474.082Z" fill="url(#d)"/></g><path d="M97.27 29.049v-6.29h4.093l5.663 6.29h2.728l-6.655-7.36 6.655-7.235h-2.728l-5.663 6.29H97.27V10.589h-2.067v18.46h2.067Zm99.171-14.595h-9.756v-3.865h-2.15v18.46h11.906c.785 0 1.612-.247 2.149-.864.62-.616.868-1.315.868-2.137v-8.47c0-.78-.248-1.603-.868-2.137-.537-.7-1.364-.987-2.149-.987Zm.992 11.593c0 .247-.083.535-.248.7-.166.164-.455.246-.703.246h-8.764c-.248 0-.537-.082-.702-.247-.166-.164-.248-.452-.248-.698v-8.47c0-.246.082-.534.248-.698.165-.165.454-.247.702-.247h8.764c.248 0 .537.082.703.247.165.164.248.452.248.698v8.47ZM113.764 10.59h-2.026v1.15h2.026v-1.15ZM77.552 29.049h12.154c.785 0 1.612-.247 2.15-.864.62-.616.867-1.315.867-2.137v-4.07c0-.782-.248-1.604-.868-2.138-.62-.617-1.323-.864-2.15-.864H77.553c-.248 0-.537-.082-.703-.246-.165-.165-.248-.453-.248-.7v-4.07c0-.246.083-.534.248-.698.166-.165.455-.247.703-.247h12.154c.248 0 .537.082.702.247.166.164.248.452.248.699v.699h2.026v-.7c0-.78-.248-1.603-.868-2.137-.62-.617-1.323-.864-2.15-.864H77.511c-.868 0-1.612.247-2.15.864-.62.617-.868 1.315-.868 2.138v4.029c0 .863.248 1.603.868 2.137.62.617 1.323.864 2.15.864h12.153c.248 0 .538.082.703.247.165.164.248.452.248.698v4.07c0 .247-.083.535-.248.7-.165.164-.455.246-.703.246H77.511c-.248 0-.537-.082-.703-.247-.165-.164-.248-.452-.248-.698v-.7h-2.026v.7c0 .863.248 1.603.869 2.137.661.617 1.364.905 2.15.905Zm36.212-14.595h-2.026v14.554h2.026V14.454Zm66.265 11.594c0 .246-.083.534-.248.699-.165.164-.455.246-.703.246h-8.805c-.248 0-.537-.082-.702-.246-.166-.165-.248-.453-.248-.7V14.455h-2.026v11.553c0 .78.248 1.603.868 2.137.62.617 1.323.864 2.15.864h8.763c.868 0 1.613-.247 2.233-.864.62-.616.868-1.315.868-2.137V14.454h-2.026v11.553h-.124v.04Zm-19.676 2.096c.62.617 1.323.864 2.15.864h2.48v-2.015h-2.48c-.248 0-.537-.082-.703-.247-.165-.164-.248-.452-.248-.698v-15.46h-2.025v15.458c-.083.782.206 1.48.826 2.097Zm-20.587-16.321c-.62.616-.868 1.315-.868 2.138v12.004c0 .864.248 1.604.868 2.138.62.617 1.323.863 2.15.863h15.088v-2.014h-15.088c-.248 0-.538-.082-.703-.247-.165-.164-.248-.452-.248-.699V13.961c0-.247.083-.535.248-.7.165-.164.455-.246.703-.246h15.088v-2.014h-15.088c-.827-.042-1.53.287-2.15.822Zm-11.285 2.631h-11.906v14.554h2.026V17.455c0-.246.083-.534.248-.699.165-.164.455-.246.703-.246h8.763c.248 0 .538.082.703.246.165.165.248.453.248.7v11.552h2.026V17.455c0-.78-.248-1.603-.868-2.137-.496-.494-1.117-.864-1.943-.864Zm7.524 12.539h-2.026v2.015h2.026v-2.015Zm-4.465 10.402c-.083 0-.166.082-.166.164v3.782c0 .083.083.165.166.165h4.836v.904h-4.836a1.091 1.091 0 0 1-1.075-1.069V37.56c0-.575.496-1.069 1.075-1.069h4.836v.905h-4.836Zm9.425.245c.579 0 1.075.494 1.075 1.07v2.63c0 .576-.496 1.07-1.075 1.07h-2.728a1.091 1.091 0 0 1-1.075-1.07v-2.63c0-.576.496-1.07 1.075-1.07h2.728Zm-2.728.905a.177.177 0 0 0-.165.164v2.632c0 .082.082.164.165.164h2.728c.083 0 .166-.082.166-.164v-2.632c0-.082-.083-.164-.166-.164h-2.728Zm9.384-.905v3.7c0 .576-.496 1.07-1.075 1.07h-2.728a1.091 1.091 0 0 1-1.075-1.07v-3.7h.91v3.7c0 .083.082.165.165.165h2.728c.083 0 .166-.082.166-.164v-3.7h.909Zm5.745 1.07v3.7h-.909v-3.7c0-.082-.083-.164-.166-.164h-2.728a.177.177 0 0 0-.165.164v3.7h-.91v-4.727h3.803c.579-.041 1.075.452 1.075 1.027Zm1.737-.164v2.795c0 .083.083.165.166.165h1.777v.904h-1.777a1.091 1.091 0 0 1-1.075-1.069V36.08h.909v1.562h1.943v.905h-1.943Zm7.316.164v1.767h-3.968v.864c0 .082.082.164.165.164h3.803v.905h-3.803a1.091 1.091 0 0 1-1.075-1.07v-2.63c0-.576.496-1.07 1.075-1.07h2.728c.62 0 1.075.494 1.075 1.07Zm-.868.863v-.864c0-.082-.083-.164-.165-.164h-2.729c-.082 0-.165.082-.165.164v.864h3.059Zm5.292-1.933v.905h-2.687a.177.177 0 0 0-.165.164v3.7h-.91v-3.7c0-.575.496-1.068 1.075-1.068h2.687Zm3.845 1.892h-3.308v.905h3.308v-.905Zm6.82-1.602h-.909v-.33c0-.082-.083-.164-.166-.164h-3.803c-.082 0-.165.082-.165.164v1.275c0 .082.083.164.165.164h3.803c.579 0 1.075.493 1.075 1.07v1.274c0 .575-.496 1.069-1.075 1.069h-3.803a1.091 1.091 0 0 1-1.075-1.07v-.37h.91v.33c0 .082.083.164.165.164h3.803c.083 0 .166-.082.166-.165v-1.274c0-.082-.083-.164-.166-.164h-3.803a1.091 1.091 0 0 1-1.075-1.07V37.56c0-.575.496-1.069 1.075-1.069h3.803c.579 0 1.075.494 1.075 1.07v.37Zm1.736.616v2.795c0 .083.083.165.165.165h1.778v.904h-1.778a1.092 1.092 0 0 1-1.075-1.069V36.08h.91v1.562h1.943v.905h-1.943Zm6.201-.906v.905h-2.687a.177.177 0 0 0-.165.164v3.7h-.91v-3.7c0-.575.496-1.068 1.075-1.068h2.687Zm1.365-1.52v.905h-.909v-.905h.909Zm-.868 1.521h.909v4.728h-.909v-4.728Zm6.531 0v.124l-2.067 2.26 2.067 2.262v.123h-1.075l-1.778-1.932h-1.075v1.932h-.868v-6.29h.868v3.454h1.075l1.778-1.933h1.075Zm5.126 1.069v1.767h-3.969v.864c0 .082.083.164.165.164h3.804v.905h-3.762a1.091 1.091 0 0 1-1.075-1.07v-2.63c0-.576.496-1.07 1.075-1.07h2.728c.579 0 1.034.494 1.034 1.07Zm-.869.863v-.864a.177.177 0 0 0-.165-.164h-2.728c-.083 0-.166.082-.166.164v.864h3.059ZM85.118 37.64v.905H82.43c-.083 0-.165.082-.165.164v3.7h-.91v-3.7c0-.575.496-1.068 1.075-1.068h2.687Zm1.363-1.52v.905h-.91v-.905h.91Zm-.91 1.521h.91v4.728h-.91v-4.728Zm7.608-.001-2.605 4.77h-.91l-2.645-4.77h1.034l2.067 3.783 2.066-3.782h.993Zm4.96 1.07v1.767H94.17v.864c0 .082.083.164.166.164h3.803v.905h-3.803a1.091 1.091 0 0 1-1.075-1.07v-2.63c0-.576.496-1.07 1.075-1.07h2.728c.579 0 1.075.494 1.075 1.07Zm-.91.863v-.864c0-.082-.082-.164-.165-.164h-2.728c-.083 0-.166.082-.166.164v.864h3.06Zm2.688 1.933h-.91v.904h.91v-.904Zm99.583 0h-.909v.904h.909v-.904Zm-96.442-5.016h.868v5.016h5.043v.904h-5.911v-5.92Zm10.128 1.15c.579 0 1.075.494 1.075 1.07v2.63c0 .576-.496 1.07-1.075 1.07h-2.728a1.091 1.091 0 0 1-1.075-1.07v-2.63c0-.576.496-1.07 1.075-1.07h2.728Zm-2.728.905c-.083 0-.166.082-.166.164v2.632c0 .082.083.164.166.164h2.728a.177.177 0 0 0 .165-.164v-2.632a.177.177 0 0 0-.165-.164h-2.728Zm10.251-.905-2.604 4.77h-.91l-2.646-4.77h1.034l2.067 3.783 2.067-3.782h.992Zm4.962 1.07v1.767h-3.969v.864c0 .082.083.164.165.164h3.804v.905h-3.804a1.091 1.091 0 0 1-1.074-1.07v-2.63c0-.576.496-1.07 1.074-1.07h2.729c.578 0 1.075.494 1.075 1.07Zm-.91.863v-.864c0-.082-.083-.164-.165-.164h-2.729c-.082 0-.165.082-.165.164v.864h3.059Zm2.645 1.933h-.909v.904h.909v-.904Zm-48.821-4.07c.538 0 .992.452.992.986v2.097c0 .535-.454.987-.992.987h-3.1v-4.07h3.1Zm0-.905h-4.01v5.88h4.01a1.891 1.891 0 0 0 1.902-1.892v-2.097a1.891 1.891 0 0 0-1.902-1.89Z" fill="#fff"/></g><defs><linearGradient id="c" x1="10.311" y1="46.637" x2="33.761" y2="34.437" gradientUnits="userSpaceOnUse"><stop stop-color="#6311DD"/><stop offset="1" stop-color="#6311DD" stop-opacity="0"/></linearGradient><linearGradient id="d" x1="44.845" y1="-.293" x2="26.043" y2="18.948" gradientUnits="userSpaceOnUse"><stop stop-color="#6311DD"/><stop offset="1" stop-color="#6311DD" stop-opacity="0"/></linearGradient><clipPath id="a"><path fill="#fff" transform="translate(.75 .25)" d="M0 0h198.75v52.5H0z"/></clipPath></defs></svg>