<svg width="380" height="75" viewBox="0 0 380 75" fill="none" xmlns="http://www.w3.org/2000/svg"><g filter="url(#a)"><path d="m9.15 14.507-4.725 8.29a27 27 0 0 0-.648 25.53l5.655 11.21a27 27 0 0 0 24.106 14.838H347.15a27 27 0 0 0 24.382-15.402l5.348-11.245a26.995 26.995 0 0 0-.598-24.377l-4.436-8.256A26.999 26.999 0 0 0 348.062.875H32.608A27 27 0 0 0 9.15 14.507Z" fill="#83F56A"/></g><defs><filter id="a" x=".883" y=".875" width="378.615" height="73.5" filterUnits="userSpaceOnUse" color-interpolation-filters="sRGB"><feFlood flood-opacity="0" result="BackgroundImageFix"/><feBlend in="SourceGraphic" in2="BackgroundImageFix" result="shape"/><feColorMatrix in="SourceAlpha" values="0 0 0 0 0 0 0 0 0 0 0 0 0 0 0 0 0 0 127 0" result="hardAlpha"/><feOffset/><feGaussianBlur stdDeviation="11.7"/><feComposite in2="hardAlpha" operator="arithmetic" k2="-1" k3="1"/><feColorMatrix values="0 0 0 0 0.727526 0 0 0 0 1 0 0 0 0 0.667773 0 0 0 1 0"/><feBlend in2="shape" result="effect1_innerShadow_347_3226"/></filter></defs></svg>