<svg width="630" height="122" viewBox="0 0 630 122" fill="none" xmlns="http://www.w3.org/2000/svg"><g filter="url(#a)"><path d="M18.193 18.475 5.567 40.631a36 36 0 0 0-.864 34.04l13.867 27.486a36 36 0 0 0 32.141 19.785h529.857a35.998 35.998 0 0 0 32.509-20.537l13.097-27.533a36 36 0 0 0-.798-32.503L613.497 19.26A36 36 0 0 0 581.785.3H49.471a36 36 0 0 0-31.278 18.175Z" fill="#F56A9B"/></g><defs><filter id="a" x=".845" y=".3" width="628.819" height="121.642" filterUnits="userSpaceOnUse" color-interpolation-filters="sRGB"><feFlood flood-opacity="0" result="BackgroundImageFix"/><feBlend in="SourceGraphic" in2="BackgroundImageFix" result="shape"/><feColorMatrix in="SourceAlpha" values="0 0 0 0 0 0 0 0 0 0 0 0 0 0 0 0 0 0 127 0" result="hardAlpha"/><feOffset/><feGaussianBlur stdDeviation="15.6"/><feComposite in2="hardAlpha" operator="arithmetic" k2="-1" k3="1"/><feColorMatrix values="0 0 0 0 1 0 0 0 0 0.667773 0 0 0 0 0.844961 0 0 0 1 0"/><feBlend in2="shape" result="effect1_innerShadow_381_131"/></filter></defs></svg>