<svg width="24" height="23" viewBox="0 0 24 23" fill="none" xmlns="http://www.w3.org/2000/svg"><g filter="url(#a)"><path d="m11.922.189 2.732 8.407h8.84l-7.152 5.196 2.732 8.407-7.152-5.196-7.15 5.196 2.73-8.407-7.15-5.196H9.19L11.922.189Z" fill="#83F56A"/></g><path d="m11.922 1.402 2.375 7.31.085.259h7.958l-6.218 4.517-.22.16.084.26 2.375 7.309-6.218-4.517-.22-.16-.22.16-6.219 4.517 2.375-7.31.085-.258-.22-.16-6.22-4.519h7.958l.085-.26 2.374-7.309Z" stroke="#D8B780" stroke-width=".75"/><defs><filter id="a" x=".351" y=".189" width="23.142" height="24.26" filterUnits="userSpaceOnUse" color-interpolation-filters="sRGB"><feFlood flood-opacity="0" result="BackgroundImageFix"/><feBlend in="SourceGraphic" in2="BackgroundImageFix" result="shape"/><feColorMatrix in="SourceAlpha" values="0 0 0 0 0 0 0 0 0 0 0 0 0 0 0 0 0 0 127 0" result="hardAlpha"/><feOffset dy="2.25"/><feGaussianBlur stdDeviation="1.125"/><feComposite in2="hardAlpha" operator="arithmetic" k2="-1" k3="1"/><feColorMatrix values="0 0 0 0 1 0 0 0 0 1 0 0 0 0 1 0 0 0 0.3 0"/><feBlend in2="shape" result="effect1_innerShadow_347_3257"/></filter></defs></svg>