<svg width="200" height="53" viewBox="0 0 200 53" fill="none" xmlns="http://www.w3.org/2000/svg">
<g clip-path="url(#clip0_347_2819)">
<mask id="mask0_347_2819" style="mask-type:luminance" maskUnits="userSpaceOnUse" x="0" y="0" width="58" height="53">
<path d="M57.792 0.311523H0.786621V52.6882H57.792V0.311523Z" fill="white"/>
</mask>
<g mask="url(#mask0_347_2819)">
<path fill-rule="evenodd" clip-rule="evenodd" d="M22.9018 39.6968L41.628 21.0731C43.1988 19.5108 45.6378 19.5108 47.126 21.0731L53.492 27.4043C55.0629 28.9666 55.0629 31.3922 53.492 32.8722L34.7658 51.5781C33.195 53.1404 30.756 53.1404 29.2679 51.5781L22.9018 45.2469C21.3309 43.6846 21.3309 41.259 22.9018 39.6968Z" fill="#5426FF"/>
<path fill-rule="evenodd" clip-rule="evenodd" d="M22.9018 39.6968L41.628 21.0731C43.1988 19.5108 45.6378 19.5108 47.126 21.0731L53.492 27.4043C55.0629 28.9666 55.0629 31.3922 53.492 32.8722L34.7658 51.5781C33.195 53.1404 30.756 53.1404 29.2679 51.5781L22.9018 45.2469C21.3309 43.6846 21.3309 41.259 22.9018 39.6968Z" fill="#5426FF"/>
<path opacity="0.5" fill-rule="evenodd" clip-rule="evenodd" d="M44.7283 33.8179C46.2992 32.2557 46.2992 29.8301 44.7283 28.35L39.5197 23.1699L22.9018 39.6969C21.3309 41.2592 21.3309 43.6848 22.9018 45.1648L28.1104 50.3449L44.7283 33.8179Z" fill="#4911D4"/>
<path fill-rule="evenodd" clip-rule="evenodd" d="M3.84538 19.3465L21.7862 1.42169C23.357 -0.140564 25.796 -0.140564 27.2841 1.42169L33.6502 7.75294C35.2211 9.31519 35.2211 11.7408 33.6502 13.2208L15.6681 31.1045C14.0973 32.6668 11.6583 32.6668 10.1701 31.1045L3.84538 24.8144C2.27452 23.3344 2.27452 20.8265 3.84538 19.3465Z" fill="#5426FF"/>
<path opacity="0.5" fill-rule="evenodd" clip-rule="evenodd" d="M33.6914 13.3033C35.2623 11.741 35.2623 9.31543 33.6914 7.8354L28.8962 3.06641L12.5263 19.3468C10.9554 20.909 10.9554 23.3346 12.5263 24.8146L17.3215 29.5425L33.6914 13.3033Z" fill="#4911D4"/>
<path fill-rule="evenodd" clip-rule="evenodd" d="M56.1383 16.3867L51.1777 17.25C50.3096 17.4145 49.5242 17.1678 48.9041 16.5511L38.5282 6.232C36.2546 3.97084 32.4515 3.97084 30.1779 6.232L0.951781 35.2571C0.49706 35.7093 0.869104 36.2849 1.48918 36.2026L6.90448 35.3393C7.68991 35.2571 8.47533 35.4215 9.01273 36.0382L19.2646 46.234C21.8689 48.824 25.2586 48.6596 27.863 45.9873L56.6757 17.3322C57.0891 16.9211 56.6757 16.2222 56.1383 16.3867ZM39.355 22.1012L26.0441 35.3393C24.7213 36.6549 22.5717 36.6549 21.2488 35.3393L18.3965 32.5026C17.9418 32.0503 17.8591 31.3103 18.3965 30.7759L31.9554 17.2911C33.0716 16.1811 35.0145 16.1811 36.1306 17.2911L39.355 20.4979C39.7684 20.909 39.7684 21.6901 39.355 22.1012Z" fill="#CD40A7"/>
<path fill-rule="evenodd" clip-rule="evenodd" d="M41.3397 32.5848L39.1488 30.1592L30.4264 30.9403L26.0032 35.3393C24.6804 36.6549 22.5308 36.6549 21.208 35.3393L25.6725 39.7794C28.2768 42.3694 31.6666 42.205 34.2709 39.5327L41.3397 32.5848Z" fill="url(#paint0_linear_347_2819)"/>
<path fill-rule="evenodd" clip-rule="evenodd" d="M23.399 12.933L14.6353 21.6898C17.777 23.8688 21.2494 26.2944 21.2494 26.2944C21.2494 26.2944 21.4147 26.7466 21.7041 27.3222L31.956 17.1264C33.0721 16.0164 35.015 16.0164 36.1311 17.1264L31.8733 12.8508C29.517 10.5896 25.7552 10.5896 23.399 12.933Z" fill="url(#paint1_linear_347_2819)"/>
</g>
<path d="M97.2702 29.0486V22.7585H101.363L107.026 29.0486H109.754L103.099 21.6896L109.754 14.4539H107.026L101.363 20.744H97.2702V10.5894H95.2032V29.0486H97.2702Z" fill="white"/>
<path d="M196.441 14.4539H186.685V10.5894H184.535V29.0486H196.441C197.226 29.0486 198.053 28.802 198.59 28.1853C199.21 27.5686 199.458 26.8697 199.458 26.0475V17.5784C199.458 16.7973 199.21 15.975 198.59 15.4406C198.053 14.7417 197.226 14.4539 196.441 14.4539ZM197.433 26.0475C197.433 26.2941 197.35 26.5819 197.185 26.7464C197.019 26.9108 196.73 26.993 196.482 26.993H187.718C187.47 26.993 187.181 26.9108 187.016 26.7464C186.85 26.5819 186.768 26.2941 186.768 26.0475V17.5784C186.768 17.3317 186.85 17.0439 187.016 16.8795C187.181 16.715 187.47 16.6328 187.718 16.6328H196.482C196.73 16.6328 197.019 16.715 197.185 16.8795C197.35 17.0439 197.433 17.3317 197.433 17.5784V26.0475Z" fill="white"/>
<path d="M113.764 10.5894H111.738V11.7405H113.764V10.5894Z" fill="white"/>
<path d="M77.5522 29.0487H89.7056C90.4911 29.0487 91.3178 28.8021 91.8552 28.1854C92.4753 27.5687 92.7233 26.8698 92.7233 26.0476V21.9775C92.7233 21.1964 92.4753 20.3741 91.8552 19.8397C91.2351 19.223 90.5324 18.9763 89.7056 18.9763H77.5522C77.3042 18.9763 77.0148 18.8941 76.8494 18.7296C76.6841 18.5652 76.6014 18.2774 76.6014 18.0307V13.9606C76.6014 13.714 76.6841 13.4262 76.8494 13.2617C77.0148 13.0973 77.3042 13.0151 77.5522 13.0151H89.7056C89.9537 13.0151 90.243 13.0973 90.4084 13.2617C90.5737 13.4262 90.6564 13.714 90.6564 13.9606V14.6596H92.682V13.9606C92.682 13.1795 92.4339 12.3573 91.8139 11.8228C91.1938 11.2061 90.4911 10.9595 89.6643 10.9595H77.5109C76.6428 10.9595 75.8987 11.2061 75.3613 11.8228C74.7412 12.4395 74.4932 13.1384 74.4932 13.9606V17.9896C74.4932 18.853 74.7412 19.593 75.3613 20.1274C75.9813 20.7441 76.6841 20.9908 77.5109 20.9908H89.6643C89.9123 20.9908 90.2017 21.073 90.367 21.2375C90.5324 21.4019 90.6151 21.6897 90.6151 21.9364V26.0065C90.6151 26.2531 90.5324 26.5409 90.367 26.7054C90.2017 26.8698 89.9123 26.952 89.6643 26.952H77.5109C77.2628 26.952 76.9735 26.8698 76.8081 26.7054C76.6428 26.5409 76.5601 26.2531 76.5601 26.0065V25.3076H74.5345V26.0065C74.5345 26.8698 74.7825 27.6098 75.4026 28.1443C76.064 28.761 76.7668 29.0487 77.5522 29.0487Z" fill="white"/>
<path d="M113.764 14.4541H111.738V29.0077H113.764V14.4541Z" fill="white"/>
<path d="M180.029 26.0477C180.029 26.2944 179.946 26.5821 179.781 26.7466C179.616 26.911 179.326 26.9933 179.078 26.9933H170.273C170.025 26.9933 169.736 26.911 169.571 26.7466C169.405 26.5821 169.323 26.2944 169.323 26.0477V14.4541H167.297V26.0066C167.297 26.7877 167.545 27.6099 168.165 28.1444C168.785 28.7611 169.488 29.0077 170.315 29.0077H179.078C179.946 29.0077 180.691 28.7611 181.311 28.1444C181.931 27.5277 182.179 26.8288 182.179 26.0066V14.4541H180.153V26.0066H180.029V26.0477Z" fill="white"/>
<path d="M160.353 28.1442C160.973 28.7608 161.676 29.0075 162.503 29.0075H164.983V26.993H162.503C162.255 26.993 161.966 26.9108 161.8 26.7464C161.635 26.5819 161.552 26.2941 161.552 26.0475V10.5894H159.527V26.0475C159.444 26.8286 159.733 27.5275 160.353 28.1442Z" fill="white"/>
<path d="M139.766 11.8228C139.146 12.4394 138.898 13.1383 138.898 13.9606V25.9653C138.898 26.8286 139.146 27.5687 139.766 28.1031C140.386 28.7198 141.089 28.9665 141.916 28.9665H157.004V26.952H141.916C141.668 26.952 141.378 26.8698 141.213 26.7053C141.048 26.5409 140.965 26.2531 140.965 26.0064V13.9606C140.965 13.7139 141.048 13.4261 141.213 13.2617C141.378 13.0972 141.668 13.015 141.916 13.015H157.004V11.0005H141.916C141.089 10.9594 140.386 11.2883 139.766 11.8228Z" fill="white"/>
<path d="M128.481 14.4541H116.575V29.0077H118.601V17.4553C118.601 17.2086 118.684 16.9208 118.849 16.7564C119.014 16.5919 119.304 16.5097 119.552 16.5097H128.315C128.563 16.5097 128.853 16.5919 129.018 16.7564C129.183 16.9208 129.266 17.2086 129.266 17.4553V29.0077H131.292V17.4553C131.292 16.6741 131.044 15.8519 130.424 15.3175C129.928 14.8241 129.307 14.4541 128.481 14.4541Z" fill="white"/>
<path d="M136.005 26.9932H133.979V29.0076H136.005V26.9932Z" fill="white"/>
<path d="M131.54 37.3947C131.457 37.3947 131.374 37.4769 131.374 37.5591V41.3414C131.374 41.4237 131.457 41.5059 131.54 41.5059H136.376V42.4104H131.54C130.961 42.4104 130.465 41.917 130.465 41.3414V37.5591C130.465 36.9836 130.961 36.4902 131.54 36.4902H136.376V37.3947H131.54Z" fill="white"/>
<path d="M140.965 37.6406C141.544 37.6406 142.04 38.134 142.04 38.7095V41.3407C142.04 41.9163 141.544 42.4096 140.965 42.4096H138.237C137.658 42.4096 137.162 41.9163 137.162 41.3407V38.7095C137.162 38.134 137.658 37.6406 138.237 37.6406H140.965ZM138.237 38.5451C138.154 38.5451 138.072 38.6273 138.072 38.7095V41.3407C138.072 41.4229 138.154 41.5052 138.237 41.5052H140.965C141.048 41.5052 141.131 41.4229 141.131 41.3407V38.7095C141.131 38.6273 141.048 38.5451 140.965 38.5451H138.237Z" fill="white"/>
<path d="M147.621 37.6406V41.3407C147.621 41.9163 147.125 42.4096 146.546 42.4096H143.818C143.239 42.4096 142.743 41.9163 142.743 41.3407V37.6406H143.653V41.3407C143.653 41.4229 143.735 41.5052 143.818 41.5052H146.546C146.629 41.5052 146.712 41.4229 146.712 41.3407V37.6406H147.621Z" fill="white"/>
<path d="M153.366 38.7104V42.4105H152.457V38.7104C152.457 38.6281 152.374 38.5459 152.291 38.5459H149.563C149.48 38.5459 149.398 38.6281 149.398 38.7104V42.4105H148.488V37.6826H152.291C152.87 37.6415 153.366 38.1348 153.366 38.7104Z" fill="white"/>
<path d="M155.103 38.5458V41.3414C155.103 41.4237 155.186 41.5059 155.269 41.5059H157.046V42.4103H155.269C154.69 42.4103 154.194 41.917 154.194 41.3414V36.0791H155.103V37.6414H157.046V38.5458H155.103Z" fill="white"/>
<path d="M162.419 38.7095V40.4774H158.451V41.3407C158.451 41.4229 158.533 41.5052 158.616 41.5052H162.419V42.4096H158.616C158.037 42.4096 157.541 41.9163 157.541 41.3407V38.7095C157.541 38.134 158.037 37.6406 158.616 37.6406H161.344C161.964 37.6406 162.419 38.134 162.419 38.7095ZM161.551 39.5729V38.7095C161.551 38.6273 161.468 38.5451 161.386 38.5451H158.657C158.575 38.5451 158.492 38.6273 158.492 38.7095V39.5729H161.551Z" fill="white"/>
<path d="M166.843 37.6406V38.5451H164.156C164.073 38.5451 163.991 38.6273 163.991 38.7095V42.4096H163.081V38.7095C163.081 38.134 163.577 37.6406 164.156 37.6406H166.843Z" fill="white"/>
<path d="M170.688 39.5322H167.38V40.4367H170.688V39.5322Z" fill="white"/>
<path d="M177.508 37.9292H176.599V37.6003C176.599 37.518 176.516 37.4358 176.433 37.4358H172.63C172.548 37.4358 172.465 37.518 172.465 37.6003V38.8747C172.465 38.957 172.548 39.0392 172.63 39.0392H176.433C177.012 39.0392 177.508 39.5325 177.508 40.1081V41.3826C177.508 41.9581 177.012 42.4515 176.433 42.4515H172.63C172.051 42.4515 171.555 41.9581 171.555 41.3826V41.0126H172.465V41.3414C172.465 41.4237 172.548 41.5059 172.63 41.5059H176.433C176.516 41.5059 176.599 41.4237 176.599 41.3414V40.067C176.599 39.9848 176.516 39.9025 176.433 39.9025H172.63C172.051 39.9025 171.555 39.4092 171.555 38.8336V37.5591C171.555 36.9836 172.051 36.4902 172.63 36.4902H176.433C177.012 36.4902 177.508 36.9836 177.508 37.5591V37.9292Z" fill="white"/>
<path d="M179.244 38.5458V41.3414C179.244 41.4237 179.327 41.5059 179.409 41.5059H181.187V42.4103H179.409C178.831 42.4103 178.334 41.917 178.334 41.3414V36.0791H179.244V37.6414H181.187V38.5458H179.244Z" fill="white"/>
<path d="M185.445 37.6406V38.5451H182.758C182.675 38.5451 182.593 38.6273 182.593 38.7095V42.4096H181.683V38.7095C181.683 38.134 182.179 37.6406 182.758 37.6406H185.445Z" fill="white"/>
<path d="M186.81 36.1201V37.0246H185.901V36.1201H186.81ZM185.942 37.6413H186.851V42.3691H185.942V37.6413Z" fill="white"/>
<path d="M192.473 37.6413V37.7646L190.406 40.0258L192.473 42.2869V42.4103H191.398L189.62 40.478H188.545V42.4103H187.677V36.1201H188.545V39.5735H189.62L191.398 37.6413H192.473Z" fill="white"/>
<path d="M197.599 38.7095V40.4774H193.63V41.3407C193.63 41.4229 193.713 41.5052 193.795 41.5052H197.599V42.4096H193.837C193.258 42.4096 192.762 41.9163 192.762 41.3407V38.7095C192.762 38.134 193.258 37.6406 193.837 37.6406H196.565C197.144 37.6406 197.599 38.134 197.599 38.7095ZM196.73 39.5729V38.7095C196.73 38.6273 196.648 38.5451 196.565 38.5451H193.837C193.754 38.5451 193.671 38.6273 193.671 38.7095V39.5729H196.73Z" fill="white"/>
<path d="M85.1179 37.6406V38.5451H82.4309C82.3482 38.5451 82.2655 38.6273 82.2655 38.7095V42.4096H81.3561V38.7095C81.3561 38.134 81.8521 37.6406 82.4309 37.6406H85.1179Z" fill="white"/>
<path d="M86.4813 36.1201V37.0246H85.5719V36.1201H86.4813ZM85.5719 37.6413H86.4813V42.3691H85.5719V37.6413Z" fill="white"/>
<path d="M93.1786 37.6406L90.5742 42.4096H89.6648L87.0192 37.6406H88.0526L90.1195 41.4229L92.1864 37.6406H93.1786Z" fill="white"/>
<path d="M98.1388 38.7095V40.4774H94.1703V41.3407C94.1703 41.4229 94.253 41.5052 94.3357 41.5052H98.1388V42.4096H94.3357C93.7569 42.4096 93.2609 41.9163 93.2609 41.3407V38.7095C93.2609 38.134 93.7569 37.6406 94.3357 37.6406H97.064C97.6427 37.6406 98.1388 38.134 98.1388 38.7095ZM97.2293 39.5729V38.7095C97.2293 38.6273 97.1467 38.5451 97.064 38.5451H94.3357C94.253 38.5451 94.1703 38.6273 94.1703 38.7095V39.5729H97.2293Z" fill="white"/>
<path d="M99.9169 41.5059H99.0074V42.4103H99.9169V41.5059Z" fill="white"/>
<path d="M199.5 41.5059H198.591V42.4103H199.5V41.5059Z" fill="white"/>
<path d="M103.058 36.4902H103.926V41.5059H108.969V42.4104H103.058V36.4902Z" fill="white"/>
<path d="M113.186 37.6406C113.765 37.6406 114.261 38.134 114.261 38.7095V41.3407C114.261 41.9163 113.765 42.4096 113.186 42.4096H110.458C109.879 42.4096 109.383 41.9163 109.383 41.3407V38.7095C109.383 38.134 109.879 37.6406 110.458 37.6406H113.186ZM110.458 38.5451C110.375 38.5451 110.292 38.6273 110.292 38.7095V41.3407C110.292 41.4229 110.375 41.5052 110.458 41.5052H113.186C113.269 41.5052 113.351 41.4229 113.351 41.3407V38.7095C113.351 38.6273 113.269 38.5451 113.186 38.5451H110.458Z" fill="white"/>
<path d="M120.709 37.6406L118.105 42.4096H117.195L114.549 37.6406H115.583L117.65 41.4229L119.717 37.6406H120.709Z" fill="white"/>
<path d="M125.671 38.7095V40.4774H121.702V41.3407C121.702 41.4229 121.785 41.5052 121.867 41.5052H125.671V42.4096H121.867C121.289 42.4096 120.793 41.9163 120.793 41.3407V38.7095C120.793 38.134 121.289 37.6406 121.867 37.6406H124.596C125.174 37.6406 125.671 38.134 125.671 38.7095ZM124.761 39.5729V38.7095C124.761 38.6273 124.678 38.5451 124.596 38.5451H121.867C121.785 38.5451 121.702 38.6273 121.702 38.7095V39.5729H124.761Z" fill="white"/>
<path d="M127.406 41.5059H126.497V42.4103H127.406V41.5059Z" fill="white"/>
<path d="M78.5851 37.4357C79.1225 37.4357 79.5772 37.8879 79.5772 38.4224V40.5191C79.5772 41.0536 79.1225 41.5058 78.5851 41.5058H75.4848V37.4357H78.5851ZM78.5851 36.5312H74.5753V42.4103H78.5851C79.6599 42.4103 80.4867 41.5469 80.4867 40.5191V38.4224C80.4867 37.3535 79.6186 36.5312 78.5851 36.5312Z" fill="white"/>
</g>
<defs>
<linearGradient id="paint0_linear_347_2819" x1="10.3113" y1="46.6369" x2="33.7615" y2="34.4367" gradientUnits="userSpaceOnUse">
<stop stop-color="#6311DD"/>
<stop offset="1" stop-color="#6311DD" stop-opacity="0"/>
</linearGradient>
<linearGradient id="paint1_linear_347_2819" x1="44.8452" y1="-0.292734" x2="26.0427" y2="18.9481" gradientUnits="userSpaceOnUse">
<stop stop-color="#6311DD"/>
<stop offset="1" stop-color="#6311DD" stop-opacity="0"/>
</linearGradient>
<clipPath id="clip0_347_2819">
<rect width="198.75" height="52.5" fill="white" transform="translate(0.75 0.25)"/>
</clipPath>
</defs>
</svg>
