<svg width="24" height="23" viewBox="0 0 24 23" fill="none" xmlns="http://www.w3.org/2000/svg">
<g filter="url(#filter0_i_347_3257)">
<path d="M11.9225 0.188965L14.6541 8.59592H23.4937L16.3423 13.7917L19.0739 22.1987L11.9225 17.0029L4.77114 22.1987L7.50272 13.7917L0.351338 8.59592H9.19094L11.9225 0.188965Z" fill="#83F56A"/>
</g>
<path d="M11.9225 1.40249L14.2975 8.7118L14.3817 8.97092H14.6541H22.3396L16.1219 13.4883L15.9015 13.6485L15.9857 13.9076L18.3606 21.2169L12.1429 16.6995L11.9225 16.5394L11.7021 16.6995L5.48443 21.2169L7.85937 13.9076L7.94356 13.6485L7.72314 13.4883L1.50547 8.97092H9.19094H9.46339L9.54758 8.7118L11.9225 1.40249Z" stroke="#D8B780" stroke-width="0.75"/>
<defs>
<filter id="filter0_i_347_3257" x="0.351318" y="0.188965" width="23.1424" height="24.2598" filterUnits="userSpaceOnUse" color-interpolation-filters="sRGB">
<feFlood flood-opacity="0" result="BackgroundImageFix"/>
<feBlend mode="normal" in="SourceGraphic" in2="BackgroundImageFix" result="shape"/>
<feColorMatrix in="SourceAlpha" type="matrix" values="0 0 0 0 0 0 0 0 0 0 0 0 0 0 0 0 0 0 127 0" result="hardAlpha"/>
<feOffset dy="2.25"/>
<feGaussianBlur stdDeviation="1.125"/>
<feComposite in2="hardAlpha" operator="arithmetic" k2="-1" k3="1"/>
<feColorMatrix type="matrix" values="0 0 0 0 1 0 0 0 0 1 0 0 0 0 1 0 0 0 0.3 0"/>
<feBlend mode="normal" in2="shape" result="effect1_innerShadow_347_3257"/>
</filter>
</defs>
</svg>
