<svg width="14" height="15" viewBox="0 0 14 15" fill="none" xmlns="http://www.w3.org/2000/svg">
<g clip-path="url(#clip0_301_107)">
<path d="M6.9106 0.498584C3.0406 0.548584 -0.0494017 3.72858 0.00059833 7.58858C0.0505983 11.4486 3.2306 14.5486 7.0906 14.4886C10.9506 14.4386 14.0506 11.2586 14.0006 7.39858C13.9506 3.53858 10.7706 0.448584 6.9106 0.498584ZM6.8906 11.7586H6.8506C6.2506 11.7386 5.8406 11.2986 5.8506 10.7186C5.8706 10.1386 6.3006 9.71858 6.8706 9.71858H6.9006C7.5106 9.73858 7.9306 10.1686 7.9106 10.7786C7.9006 11.3586 7.4806 11.7586 6.8906 11.7586ZM9.3906 6.78858C9.2506 6.98858 8.9406 7.23858 8.5506 7.53858L8.1306 7.82858C7.8906 8.01858 7.7506 8.18858 7.7006 8.35858C7.6606 8.48858 7.6406 8.51858 7.6306 8.78858V8.85858H6.0006V8.71858C6.0206 8.14858 6.0306 7.81858 6.2706 7.53858C6.6406 7.10858 7.4506 6.57858 7.4906 6.55858C7.6106 6.46858 7.7006 6.36858 7.7806 6.26858C7.9506 6.02858 8.0306 5.84858 8.0306 5.66858C8.0306 5.41858 7.9506 5.17858 7.8106 4.96858C7.6606 4.76858 7.3906 4.66858 7.0006 4.66858C6.6106 4.66858 6.3406 4.78858 6.1806 5.04858C6.0206 5.30858 5.9306 5.57858 5.9306 5.85858V5.92858H4.2506V5.85858C4.2906 4.82858 4.6606 4.08858 5.3406 3.65858C5.7706 3.37858 6.3006 3.23858 6.9206 3.23858C7.7306 3.23858 8.4206 3.43858 8.9606 3.82858C9.5206 4.21858 9.8006 4.80858 9.8006 5.58858C9.8006 6.01858 9.6606 6.41858 9.3906 6.78858Z" fill="currentColor"/>
</g>
<defs>
<clipPath id="clip0_301_107">
<rect width="14" height="14" fill="white" transform="translate(0 0.497986)"/>
</clipPath>
</defs>
</svg>
