<svg width="66" height="61" viewBox="0 0 66 61" fill="none" xmlns="http://www.w3.org/2000/svg">
<g clip-path="url(#clip0_301_90)">
<path fill-rule="evenodd" clip-rule="evenodd" d="M25.4008 46.0042L46.9008 24.5042C48.7008 22.7042 51.5008 22.7042 53.2008 24.5042L60.5008 31.8042C62.3008 33.6042 62.3008 36.4042 60.5008 38.1042L39.0008 59.7042C37.2008 61.5042 34.4008 61.5042 32.7008 59.7042L25.4008 52.4042C23.6008 50.6042 23.6008 47.8042 25.4008 46.0042Z" fill="#1B1A2A"/>
<path opacity="0.5" fill-rule="evenodd" clip-rule="evenodd" d="M50.5008 39.2042C52.3008 37.4042 52.3008 34.6042 50.5008 32.9042L44.5008 26.9042L25.4008 46.0042C23.6008 47.8042 23.6008 50.6042 25.4008 52.3042L31.4008 58.3042L50.5008 39.2042Z" fill="#110F1D"/>
<path fill-rule="evenodd" clip-rule="evenodd" d="M3.50039 22.5011L24.1004 1.80111C25.9004 0.00111079 28.7004 0.00111079 30.4004 1.80111L37.7004 9.10111C39.5004 10.9011 39.5004 13.7011 37.7004 15.4011L17.1004 36.1011C15.3004 37.9011 12.5004 37.9011 10.8004 36.1011L3.50039 28.8011C1.70039 27.1011 1.70039 24.2011 3.50039 22.5011Z" fill="#1B1A2A"/>
<path opacity="0.5" fill-rule="evenodd" clip-rule="evenodd" d="M37.8004 15.5011C39.6004 13.7011 39.6004 10.9011 37.8004 9.20111L32.3004 3.70111L13.5004 22.5011C11.7004 24.3011 11.7004 27.1011 13.5004 28.8011L19.0004 34.3011L37.8004 15.5011Z" fill="#110F1D"/>
<path fill-rule="evenodd" clip-rule="evenodd" d="M63.6 19.1011L57.9 20.1011C56.9 20.3011 56 20.0011 55.3 19.3011L43.4 7.40111C40.8 4.80111 36.4 4.80111 33.8 7.40111L0.199967 40.9011C-0.300033 41.4011 0.0999672 42.1011 0.799967 42.0011L6.99997 41.0011C7.89997 40.9011 8.79997 41.1011 9.39997 41.8011L21.2 53.6011C24.2 56.6011 28.1 56.4011 31.1 53.3011L64.2 20.2011C64.7 19.7011 64.2 18.9011 63.6 19.1011ZM44.3 25.7011L29 41.0011C27.5 42.5011 25 42.5011 23.5 41.0011L20.2 37.7011C19.7 37.2011 19.6 36.3011 20.2 35.7011L35.8 20.1011C37.1 18.8011 39.3 18.8011 40.6 20.1011L44.3 23.8011C44.8 24.3011 44.8 25.2011 44.3 25.7011Z" fill="#2B2936"/>
</g>
<defs>
<clipPath id="clip0_301_90">
<rect width="65.5" height="60.5" fill="white" transform="translate(0 0.497986)"/>
</clipPath>
</defs>
</svg>
