<svg width="19" height="15" viewBox="0 0 19 15" fill="none" xmlns="http://www.w3.org/2000/svg">
<g clip-path="url(#clip0_301_103)">
<path d="M19 12.168C19 12.578 18.88 12.958 18.69 13.288L12.69 6.69799L18.62 1.59799C18.86 1.94799 19 2.37799 19 2.82799V12.168ZM9.5 7.88799L17.76 0.787986C17.42 0.607986 17.04 0.497986 16.62 0.497986H2.37C1.96 0.497986 1.58 0.607986 1.24 0.787986L9.5 7.88799ZM11.8 7.45799L9.89 9.10799C9.78 9.19799 9.64 9.24799 9.5 9.24799C9.36 9.24799 9.22 9.19799 9.11 9.10799L7.2 7.45799L1.13 14.138C1.49 14.368 1.91 14.498 2.37 14.498H16.62C17.08 14.498 17.51 14.368 17.87 14.138L11.8 7.45799ZM0.37 1.58799C0.14 1.94799 0 2.37799 0 2.82799V12.158C0 12.568 0.12 12.948 0.3 13.278L6.3 6.67799L0.37 1.58799Z" fill="currentColor"/>
</g>
<defs>
<clipPath id="clip0_301_103">
<rect width="19" height="14" fill="white" transform="translate(0 0.497986)"/>
</clipPath>
</defs>
</svg>
