<svg width="111" height="39" viewBox="0 0 111 39" fill="none" xmlns="http://www.w3.org/2000/svg">
<g clip-path="url(#clip0_39_404)">
<path d="M103.35 11.6651C102.649 15.2429 101.939 18.8118 101.164 22.7511C103.6 22.4301 104.908 20.9484 105.426 19.2382C106.956 14.1727 108.428 9.06254 109.383 3.87354C109.933 0.899052 107.828 -0.605169 104.976 0.362979C100.222 1.97963 95.5576 3.83376 90.8538 5.59668C90.5797 5.69597 90.204 5.78867 90.0802 5.99475C89.6736 6.67845 89.3698 7.41484 89.0193 8.12476C89.6351 8.40397 90.3054 9.00456 90.8657 8.91632C92.7485 8.61874 94.6067 8.08201 96.4673 7.63745C97.448 7.40003 98.4194 7.16286 99.8761 7.50337C98.8823 8.66333 97.9267 9.86842 96.876 10.9653C75.4885 33.4197 42.718 38.9686 15.0259 24.7435C11.4838 22.9259 8.1702 20.669 4.74246 18.6364C3.54379 17.9295 2.30993 17.2882 1.09354 16.6095C0.850419 16.8371 0.607059 17.0554 0.363936 17.2831C0.69892 18.1136 0.800474 19.19 1.39535 19.728C3.45461 21.6207 5.56892 23.5027 7.86916 25.0849C31.1897 41.0829 62.9921 40.9077 87.1813 24.4584C91.7945 21.3237 95.8323 17.337 100.11 13.713C100.995 12.9709 101.765 12.0933 102.583 11.2791C102.836 11.4017 103.087 11.5151 103.34 11.6377L103.35 11.6651Z" fill="white"/>
</g>
<defs>
<clipPath id="clip0_39_404">
<rect width="35.3641" height="109.43" fill="white" transform="matrix(0.0257974 0.999667 0.999667 -0.0257974 0 2.823)"/>
</clipPath>
</defs>
</svg>
